<?xml version="1.0" encoding="UTF-8" standalone="no"?>
<!-- Created with Inkscape (http://www.inkscape.org/) -->

<svg
   width="33.866673mm"
   height="33.866669mm"
   viewBox="0 0 33.866673 33.866669"
   version="1.1"
   id="svg5"
   xmlns="http://www.w3.org/2000/svg"
   xmlns:svg="http://www.w3.org/2000/svg">
  <defs
     id="defs2">
    <clipPath
       clipPathUnits="userSpaceOnUse"
       id="clipPath923">
      <g
         id="use925">
        <g
           id="g951"
           transform="matrix(0.26458333,0,0,0.26458333,44.486399,164.35122)">
          <g
             transform="translate(32,32)"
             id="g931">
            <path
               d="m -16,-32 c -8.86,0 -16,7.13 -16,15.99 v 95.98 c 0,8.86 7.13,15.99 16,15.99 h 96 c 8.86,0 16,-7.13 16,-15.99 V -16.01 C 96,-24.86 88.86,-32 80,-32 Z"
               fill="#363d52"
               id="path927" />
            <path
               d="m -16,-32 c -8.86,0 -16,7.13 -16,15.99 v 95.98 c 0,8.86 7.13,15.99 16,15.99 h 96 c 8.86,0 16,-7.13 16,-15.99 V -16.01 C 96,-24.86 88.86,-32 80,-32 Z m 0,4 h 96 c 6.64,0 12,5.35 12,11.99 v 95.98 c 0,6.64 -5.35,11.99 -12,11.99 h -96 c -6.64,0 -12,-5.35 -12,-11.99 v -95.98 c 0,-6.64 5.36,-11.99 12,-11.99 z"
               fill-opacity="0.4"
               id="path929" />
          </g>
          <g
             stroke-width="9.92746"
             transform="matrix(0.10073078,0,0,0.10073078,12.425923,2.256365)"
             id="g949">
            <path
               d="m 0,0 c 0,0 -0.325,1.994 -0.515,1.976 l -36.182,-3.491 c -2.879,-0.278 -5.115,-2.574 -5.317,-5.459 l -0.994,-14.247 -27.992,-1.997 -1.904,12.912 c -0.424,2.872 -2.932,5.037 -5.835,5.037 h -38.188 c -2.902,0 -5.41,-2.165 -5.834,-5.037 l -1.905,-12.912 -27.992,1.997 -0.994,14.247 c -0.202,2.886 -2.438,5.182 -5.317,5.46 l -36.2,3.49 c -0.187,0.018 -0.324,-1.978 -0.511,-1.978 l -0.049,-7.83 30.658,-4.944 1.004,-14.374 c 0.203,-2.91 2.551,-5.263 5.463,-5.472 l 38.551,-2.75 c 0.146,-0.01 0.29,-0.016 0.434,-0.016 2.897,0 5.401,2.166 5.825,5.038 l 1.959,13.286 h 28.005 l 1.959,-13.286 c 0.423,-2.871 2.93,-5.037 5.831,-5.037 0.142,0 0.284,0.005 0.423,0.015 l 38.556,2.75 c 2.911,0.209 5.26,2.562 5.463,5.472 l 1.003,14.374 30.645,4.966 z"
               fill="#ffffff00"
               transform="matrix(4.162611,0,0,-4.162611,919.24059,771.67186)"
               id="path933" />
            <path
               d="m 0,0 v -47.514 -6.035 -5.492 c 0.108,-0.001 0.216,-0.005 0.323,-0.015 l 36.196,-3.49 c 1.896,-0.183 3.382,-1.709 3.514,-3.609 l 1.116,-15.978 31.574,-2.253 2.175,14.747 c 0.282,1.912 1.922,3.329 3.856,3.329 h 38.188 c 1.933,0 3.573,-1.417 3.855,-3.329 l 2.175,-14.747 31.575,2.253 1.115,15.978 c 0.133,1.9 1.618,3.425 3.514,3.609 l 36.182,3.49 c 0.107,0.01 0.214,0.014 0.322,0.015 v 4.711 l 0.015,0.005 V 0 c 5.09692,6.4164715 9.92323,13.494208 13.621,19.449 -5.651,9.62 -12.575,18.217 -19.976,26.182 -6.864,-3.455 -13.531,-7.369 -19.828,-11.534 -3.151,3.132 -6.7,5.694 -10.186,8.372 -3.425,2.751 -7.285,4.768 -10.946,7.118 1.09,8.117 1.629,16.108 1.846,24.448 -9.446,4.754 -19.519,7.906 -29.708,10.17 -4.068,-6.837 -7.788,-14.241 -11.028,-21.479 -3.842,0.642 -7.702,0.88 -11.567,0.926 v 0.006 c -0.027,0 -0.052,-0.006 -0.075,-0.006 -0.024,0 -0.049,0.006 -0.073,0.006 V 63.652 C 93.903,63.606 90.046,63.368 86.203,62.726 82.965,69.964 79.247,77.368 75.173,84.205 64.989,81.941 54.915,78.789 45.47,74.035 45.686,65.695 46.225,57.704 47.318,49.587 43.65,47.237 39.795,45.22 36.369,42.469 32.888,39.791 29.333,37.229 26.181,34.097 19.884,38.262 13.219,42.176 6.353,45.631 -1.048,37.666 -7.968,29.069 -13.621,19.449 -9.1783421,12.475308 -4.4130298,5.4661124 0,0 Z"
               fill="#478cbf"
               transform="matrix(4.162611,0,0,-4.162611,104.69892,525.90697)"
               id="path935" />
            <path
               d="m 0,0 -1.121,-16.063 c -0.135,-1.936 -1.675,-3.477 -3.611,-3.616 l -38.555,-2.751 c -0.094,-0.007 -0.188,-0.01 -0.281,-0.01 -1.916,0 -3.569,1.406 -3.852,3.33 l -2.211,14.994 H -81.09 l -2.211,-14.994 c -0.297,-2.018 -2.101,-3.469 -4.133,-3.32 l -38.555,2.751 c -1.936,0.139 -3.476,1.68 -3.611,3.616 L -130.721,0 -163.268,3.138 c 0.015,-3.498 0.06,-7.33 0.06,-8.093 0,-34.374 43.605,-50.896 97.781,-51.086 h 0.066 0.067 c 54.176,0.19 97.766,16.712 97.766,51.086 0,0.777 0.047,4.593 0.063,8.093 z"
               fill="#478cbf"
               transform="matrix(4.162611,0,0,-4.162611,784.07144,817.24284)"
               id="path937" />
            <path
               d="m 0,0 c 0,-12.052 -9.765,-21.815 -21.813,-21.815 -12.042,0 -21.81,9.763 -21.81,21.815 0,12.044 9.768,21.802 21.81,21.802 C -9.765,21.802 0,12.044 0,0"
               fill="#ffffff00"
               transform="matrix(4.162611,0,0,-4.162611,389.21484,625.67104)"
               id="path939" />
            <path
               d="m 0,0 c 0,-7.994 -6.479,-14.473 -14.479,-14.473 -7.996,0 -14.479,6.479 -14.479,14.473 0,7.994 6.483,14.479 14.479,14.479 C -6.479,14.479 0,7.994 0,0"
               fill="#414042"
               transform="matrix(4.162611,0,0,-4.162611,367.36686,631.05679)"
               id="path941" />
            <path
               d="m 0,0 c -3.878,0 -7.021,2.858 -7.021,6.381 v 20.081 c 0,3.52 3.143,6.381 7.021,6.381 3.878,0 7.028,-2.861 7.028,-6.381 V 6.381 C 7.028,2.858 3.878,0 0,0"
               fill="#ffffff00"
               transform="matrix(4.162611,0,0,-4.162611,511.99336,724.73954)"
               id="path943" />
            <path
               d="m 0,0 c 0,-12.052 9.765,-21.815 21.815,-21.815 12.041,0 21.808,9.763 21.808,21.815 0,12.044 -9.767,21.802 -21.808,21.802 C 9.765,21.802 0,12.044 0,0"
               fill="#ffffff00"
               transform="matrix(4.162611,0,0,-4.162611,634.78706,625.67104)"
               id="path945" />
            <path
               d="m 0,0 c 0,-7.994 6.477,-14.473 14.471,-14.473 8.002,0 14.479,6.479 14.479,14.473 0,7.994 -6.477,14.479 -14.479,14.479 C 6.477,14.479 0,7.994 0,0"
               fill="#414042"
               transform="matrix(4.162611,0,0,-4.162611,656.64056,631.05679)"
               id="path947" />
          </g>
        </g>
        <path
           d="M 84.513884,207.82814 H 57.904359 c -2.003275,0 -3.628572,-1.6253 -3.628572,-3.62856 v -26.60955 c 0,-2.00326 1.625297,-3.62856 3.628572,-3.62856 h 26.609525 c 2.00327,0 3.62857,1.6253 3.62857,3.62856 v 26.60955 c 0,2.00326 -1.6253,3.62856 -3.62857,3.62856 z m -12.23887,-22.83733 -10.258274,10.25827 -0.476251,4.31651 c -0.06046,0.57452 0.423335,1.06589 1.005417,1.00541 l 4.316489,-0.47625 10.258269,-10.25829 c 0.17387,-0.17386 0.17387,-0.46112 0,-0.64255 l -4.195531,-4.19554 c -0.188988,-0.18142 -0.476251,-0.18142 -0.650119,-0.007 z m 8.08113,-0.96761 -2.27542,-2.27542 c -0.71059,-0.71059 -1.85964,-0.71059 -2.56267,0 l -1.746254,1.74625 c -0.17387,0.17387 -0.17387,0.46113 0,0.64255 l 4.195534,4.19555 c 0.17387,0.17386 0.46113,0.17386 0.64256,0 l 1.74625,-1.74626 c 0.70303,-0.70303 0.70303,-1.85208 0,-2.56267 z"
           id="path953"
           style="stroke-width:0.0755952" />
      </g>
    </clipPath>
  </defs>
  <g
     id="layer1"
     transform="translate(-44.355662,-164.5075)">
    <path
       d="M 75.047333,170.15194 H 62.347332 l -4.23334,-5.64444 h -10.58333 c -1.75353,0 -3.175,1.8953 -3.175,4.23333 v 25.4 c 0,2.33804 1.42147,4.23334 3.175,4.23334 h 27.516671 c 1.75352,0 3.175,-1.8953 3.175,-4.23334 v -19.75555 c 0,-2.33804 -1.42148,-4.23334 -3.175,-4.23334 z"
       id="path1125"
       style="display:inline;fill:#1b2b3b;fill-opacity:1;stroke-width:0.758245" />
    <g
       id="g866"
       transform="matrix(0.26458333,0,0,0.26458333,44.486399,166.99707)"
       style="display:inline;fill:#f8b44b;fill-opacity:1">
      <g
         transform="translate(32,32)"
         id="g828"
         style="fill:#f8b44b;fill-opacity:1">
        <path
           d="m -16,-32 c -8.86,0 -16,7.13 -16,15.99 v 95.98 c 0,8.86 7.13,15.99 16,15.99 h 96 c 8.86,0 16,-7.13 16,-15.99 V -16.01 C 96,-24.86 88.86,-32 80,-32 Z"
           fill="#363d52"
           id="path824"
           style="display:none;fill:#f8b44b;fill-opacity:1" />
        <path
           d="m -16,-32 c -8.86,0 -16,7.13 -16,15.99 v 95.98 c 0,8.86 7.13,15.99 16,15.99 h 96 c 8.86,0 16,-7.13 16,-15.99 V -16.01 C 96,-24.86 88.86,-32 80,-32 Z m 0,4 h 96 c 6.64,0 12,5.35 12,11.99 v 95.98 c 0,6.64 -5.35,11.99 -12,11.99 h -96 c -6.64,0 -12,-5.35 -12,-11.99 v -95.98 c 0,-6.64 5.36,-11.99 12,-11.99 z"
           fill-opacity="0.4"
           id="path826"
           style="display:none;fill:#f8b44b;fill-opacity:1" />
      </g>
      <g
         stroke-width="9.92746"
         transform="matrix(0.10073078,0,0,0.10073078,12.425923,2.256365)"
         id="g846"
         style="fill:#f8b44b;fill-opacity:1">
        <path
           d="m 0,0 c 0,0 -0.325,1.994 -0.515,1.976 l -36.182,-3.491 c -2.879,-0.278 -5.115,-2.574 -5.317,-5.459 l -0.994,-14.247 -27.992,-1.997 -1.904,12.912 c -0.424,2.872 -2.932,5.037 -5.835,5.037 h -38.188 c -2.902,0 -5.41,-2.165 -5.834,-5.037 l -1.905,-12.912 -27.992,1.997 -0.994,14.247 c -0.202,2.886 -2.438,5.182 -5.317,5.46 l -36.2,3.49 c -0.187,0.018 -0.324,-1.978 -0.511,-1.978 l -0.049,-7.83 30.658,-4.944 1.004,-14.374 c 0.203,-2.91 2.551,-5.263 5.463,-5.472 l 38.551,-2.75 c 0.146,-0.01 0.29,-0.016 0.434,-0.016 2.897,0 5.401,2.166 5.825,5.038 l 1.959,13.286 h 28.005 l 1.959,-13.286 c 0.423,-2.871 2.93,-5.037 5.831,-5.037 0.142,0 0.284,0.005 0.423,0.015 l 38.556,2.75 c 2.911,0.209 5.26,2.562 5.463,5.472 l 1.003,14.374 30.645,4.966 z"
           fill="#ffffff00"
           transform="matrix(4.162611,0,0,-4.162611,919.24059,771.67186)"
           id="path830"
           style="display:none;fill:#f8b44b;fill-opacity:1" />
        <path
           d="m 0,0 v -47.514 -6.035 -5.492 c 0.108,-0.001 0.216,-0.005 0.323,-0.015 l 36.196,-3.49 c 1.896,-0.183 3.382,-1.709 3.514,-3.609 l 1.116,-15.978 31.574,-2.253 2.175,14.747 c 0.282,1.912 1.922,3.329 3.856,3.329 h 38.188 c 1.933,0 3.573,-1.417 3.855,-3.329 l 2.175,-14.747 31.575,2.253 1.115,15.978 c 0.133,1.9 1.618,3.425 3.514,3.609 l 36.182,3.49 c 0.107,0.01 0.214,0.014 0.322,0.015 v 4.711 l 0.015,0.005 V 0 c 5.09692,6.4164715 9.92323,13.494208 13.621,19.449 -5.651,9.62 -12.575,18.217 -19.976,26.182 -6.864,-3.455 -13.531,-7.369 -19.828,-11.534 -3.151,3.132 -6.7,5.694 -10.186,8.372 -3.425,2.751 -7.285,4.768 -10.946,7.118 1.09,8.117 1.629,16.108 1.846,24.448 -9.446,4.754 -19.519,7.906 -29.708,10.17 -4.068,-6.837 -7.788,-14.241 -11.028,-21.479 -3.842,0.642 -7.702,0.88 -11.567,0.926 v 0.006 c -0.027,0 -0.052,-0.006 -0.075,-0.006 -0.024,0 -0.049,0.006 -0.073,0.006 V 63.652 C 93.903,63.606 90.046,63.368 86.203,62.726 82.965,69.964 79.247,77.368 75.173,84.205 64.989,81.941 54.915,78.789 45.47,74.035 45.686,65.695 46.225,57.704 47.318,49.587 43.65,47.237 39.795,45.22 36.369,42.469 32.888,39.791 29.333,37.229 26.181,34.097 19.884,38.262 13.219,42.176 6.353,45.631 -1.048,37.666 -7.968,29.069 -13.621,19.449 -9.1783421,12.475308 -4.4130298,5.4661124 0,0 Z"
           fill="#478cbf"
           transform="matrix(4.162611,0,0,-4.162611,104.69892,525.90697)"
           id="path832"
           style="display:inline;fill:#f8b44b;fill-opacity:1" />
        <path
           d="m 0,0 -1.121,-16.063 c -0.135,-1.936 -1.675,-3.477 -3.611,-3.616 l -38.555,-2.751 c -0.094,-0.007 -0.188,-0.01 -0.281,-0.01 -1.916,0 -3.569,1.406 -3.852,3.33 l -2.211,14.994 H -81.09 l -2.211,-14.994 c -0.297,-2.018 -2.101,-3.469 -4.133,-3.32 l -38.555,2.751 c -1.936,0.139 -3.476,1.68 -3.611,3.616 L -130.721,0 -163.268,3.138 c 0.015,-3.498 0.06,-7.33 0.06,-8.093 0,-34.374 43.605,-50.896 97.781,-51.086 h 0.066 0.067 c 54.176,0.19 97.766,16.712 97.766,51.086 0,0.777 0.047,4.593 0.063,8.093 z"
           fill="#478cbf"
           transform="matrix(4.162611,0,0,-4.162611,784.07144,817.24284)"
           id="path834"
           style="display:inline;fill:#f8b44b;fill-opacity:1" />
        <path
           d="m 0,0 c 0,-12.052 -9.765,-21.815 -21.813,-21.815 -12.042,0 -21.81,9.763 -21.81,21.815 0,12.044 9.768,21.802 21.81,21.802 C -9.765,21.802 0,12.044 0,0"
           fill="#ffffff00"
           transform="matrix(4.162611,0,0,-4.162611,389.21484,625.67104)"
           id="path836"
           style="fill:#1b2b3b;fill-opacity:1" />
        <path
           d="m 0,0 c 0,-7.994 -6.479,-14.473 -14.479,-14.473 -7.996,0 -14.479,6.479 -14.479,14.473 0,7.994 6.483,14.479 14.479,14.479 C -6.479,14.479 0,7.994 0,0"
           fill="#414042"
           transform="matrix(4.162611,0,0,-4.162611,367.36686,631.05679)"
           id="path838"
           style="display:none;fill:#f8b44b;fill-opacity:1" />
        <path
           d="m 0,0 c -3.878,0 -7.021,2.858 -7.021,6.381 v 20.081 c 0,3.52 3.143,6.381 7.021,6.381 3.878,0 7.028,-2.861 7.028,-6.381 V 6.381 C 7.028,2.858 3.878,0 0,0"
           fill="#ffffff00"
           transform="matrix(4.162611,0,0,-4.162611,511.99336,724.73954)"
           id="path840"
           style="display:inline;fill:#1b2b3b;fill-opacity:1" />
        <path
           d="m 0,0 c 0,-12.052 9.765,-21.815 21.815,-21.815 12.041,0 21.808,9.763 21.808,21.815 0,12.044 -9.767,21.802 -21.808,21.802 C 9.765,21.802 0,12.044 0,0"
           fill="#ffffff00"
           transform="matrix(4.162611,0,0,-4.162611,634.78706,625.67104)"
           id="path842"
           style="display:inline;fill:#1b2b3b;fill-opacity:1" />
        <path
           d="m 0,0 c 0,-7.994 6.477,-14.473 14.471,-14.473 8.002,0 14.479,6.479 14.479,14.473 0,7.994 -6.477,14.479 -14.479,14.479 C 6.477,14.479 0,7.994 0,0"
           fill="#414042"
           transform="matrix(4.162611,0,0,-4.162611,656.64056,631.05679)"
           id="path844"
           style="display:none;fill:#f8b44b;fill-opacity:1" />
      </g>
    </g>
    <path
       d="M 74.669393,198.2363 H 48.059868 c -2.003275,0 -3.628572,-1.6253 -3.628572,-3.62856 v -26.60955 c 0,-2.00326 1.625297,-3.62856 3.628572,-3.62856 h 26.609525 c 2.00327,0 3.62857,1.6253 3.62857,3.62856 v 26.60955 c 0,2.00326 -1.6253,3.62856 -3.62857,3.62856 z m -12.23887,-22.83733 -10.258274,10.25827 -0.476251,4.31651 c -0.06046,0.57452 0.423335,1.06589 1.005417,1.00541 l 4.316489,-0.47625 10.258269,-10.25829 c 0.17387,-0.17386 0.17387,-0.46112 0,-0.64255 l -4.195531,-4.19554 c -0.188988,-0.18142 -0.476251,-0.18142 -0.650119,-0.007 z m 8.08113,-0.96761 -2.27542,-2.27542 c -0.71059,-0.71059 -1.85964,-0.71059 -2.56267,0 l -1.746254,1.74625 c -0.17387,0.17387 -0.17387,0.46113 0,0.64255 l 4.195534,4.19555 c 0.17387,0.17386 0.46113,0.17386 0.64256,0 l 1.74625,-1.74626 c 0.70303,-0.70303 0.70303,-1.85208 0,-2.56267 z"
       id="path868"
       style="display:none;stroke-width:0.0755952" />
  </g>
</svg>
